HIERARCHY
ROOT Hips
{
 OFFSET 0.000000 0.000000 0.000000
 CHANNELS 6 Xposition Yposition Zposition Yrotation Xrotation Zrotation
 JOINT Chest
 {
  OFFSET 0.000000 9.857222 0.000240
  CHANNELS 3 Yrotation Xrotation Zrotation
  JOINT Chest2
  {
   OFFSET 0.000000 10.876940 -0.000436
   CHANNELS 3 Yrotation Xrotation Zrotation
   JOINT Chest3
   {
    OFFSET 0.000000 9.827798 0.000000
    CHANNELS 3 Yrotation Xrotation Zrotation
    JOINT Chest4
    {
     OFFSET 0.000000 9.827798 0.000000
     CHANNELS 3 Yrotation Xrotation Zrotation
     JOINT Neck
     {
      OFFSET 0.000000 13.831992 0.000000
      CHANNELS 3 Yrotation Xrotation Zrotation
      JOINT Head
      {
       OFFSET 0.000000 9.147643 -0.001036
       CHANNELS 3 Yrotation Xrotation Zrotation
       End Site
       {
        OFFSET 0.000000 17.515799 -0.000541
       }
      }
     }
     JOINT RightCollar
     {
      OFFSET -3.001579 7.717577 0.000000
      CHANNELS 3 Yrotation Xrotation Zrotation
      JOINT RightShoulder
      {
       OFFSET -14.002642 0.000000 0.000000
       CHANNELS 3 Yrotation Xrotation Zrotation
       JOINT RightElbow
       {
        OFFSET -30.053852 0.000000 0.000000
        CHANNELS 3 Yrotation Xrotation Zrotation
        JOINT RightWrist
        {
         OFFSET -24.564923 0.000000 -0.000000
         CHANNELS 3 Yrotation Xrotation Zrotation
         End Site
         {
          OFFSET -18.334355 0.000000 0.000000
         }
        }
       }
      }
     }
     JOINT LeftCollar
     {
      OFFSET 3.001579 7.717577 0.000000
      CHANNELS 3 Yrotation Xrotation Zrotation
      JOINT LeftShoulder
      {
       OFFSET 14.002642 0.000000 0.000000
       CHANNELS 3 Yrotation Xrotation Zrotation
       JOINT LeftElbow
       {
        OFFSET 30.053852 0.000000 0.000000
        CHANNELS 3 Yrotation Xrotation Zrotation
        JOINT LeftWrist
        {
         OFFSET 24.564923 0.000000 -0.000000
         CHANNELS 3 Yrotation Xrotation Zrotation
         End Site
         {
          OFFSET 18.334355 0.000000 0.000000
         }
        }
       }
      }
     }
    }
   }
  }
 }
 JOINT RightHip
 {
  OFFSET -8.003235 -0.001175 -0.000120
  CHANNELS 3 Yrotation Xrotation Zrotation
  JOINT RightKnee
  {
   OFFSET 0.000000 -41.759727 0.000113
   CHANNELS 3 Yrotation Xrotation Zrotation
   JOINT RightAnkle
   {
    OFFSET 0.000000 -40.728748 0.000159
    CHANNELS 3 Yrotation Xrotation Zrotation
    JOINT RightToe
    {
     OFFSET 0.000000 -6.515296 14.732841
     CHANNELS 3 Yrotation Xrotation Zrotation
     End Site
     {
      OFFSET 0.000000 -1.502839 6.412115
     }
    }
   }
  }
 }
 JOINT LeftHip
 {
  OFFSET 8.003235 -0.001175 -0.000120
  CHANNELS 3 Yrotation Xrotation Zrotation
  JOINT LeftKnee
  {
   OFFSET 0.000000 -41.759727 0.000113
   CHANNELS 3 Yrotation Xrotation Zrotation
   JOINT LeftAnkle
   {
    OFFSET 0.000000 -40.728748 0.000159
    CHANNELS 3 Yrotation Xrotation Zrotation
    JOINT LeftToe
    {
     OFFSET 0.000000 -6.515296 14.732841
     CHANNELS 3 Yrotation Xrotation Zrotation
     End Site
     {
      OFFSET 0.000000 -1.502839 6.412115
     }
    }
   }
  }
 }
}
MOTION
Frames: 5
Frame Time: 0.016667
-0.291868 89.148657 12.543557 -22.292391 5.385048 2.160516 2.181770 2.851210 2.199518 0.993094 1.219360 0.587959 0.993094 1.219360 0.587959 0.743620 0.915480 0.438972 -7.502848 29.365235 -0.758799 -13.173274 18.531904 0.030733 11.646737 27.680027 15.643331 49.798295 1.757929 54.480639 37.461502 -9.034752 -4.312479 -8.503968 5.604938 -14.790490 -36.738970 27.222838 -24.549982 -34.215512 -9.777155 -54.799741 -31.649894 -10.257836 10.353973 6.146993 10.324885 15.755762 -16.487416 -19.069304 9.577448 0.658769 20.497991 -9.110077 -1.981690 -6.541894 -1.773776 1.312775 -0.349913 0.368960 -2.923282 -12.215055 2.412999 -3.890378 18.681229 -1.056959 -2.922091 -16.617305 -4.788818 0.042485 2.617954 0.889586
-0.844410 89.115669 11.955796 -21.566083 6.598431 3.001248 2.276407 2.682894 1.760223 0.968120 1.239127 0.615082 0.968120 1.239127 0.615082 0.724815 0.930324 0.459331 -7.434192 29.426500 -0.709481 -13.060090 18.646187 0.100067 12.122069 27.681494 15.889114 49.921391 2.217986 54.220003 38.188501 -9.517437 -5.406682 -8.545327 5.650955 -14.697168 -36.922639 27.456351 -24.521969 -34.246289 -10.599848 -54.584294 -32.606667 -9.262044 11.072275 5.955610 10.482119 15.906573 -16.727902 -20.713113 9.486573 -0.424444 20.616683 -9.435766 -0.729054 -6.504475 -1.705808 0.580611 -0.310976 -0.029380 -0.609010 -13.580980 0.680482 -6.328801 20.042069 -0.866710 -3.902016 -18.671118 -4.577670 0.121207 2.718659 0.955046
-1.342426 89.087700 11.511683 -20.856505 7.299646 3.687825 2.214718 2.855933 1.474971 0.963250 1.316274 0.649503 0.963250 1.316274 0.649503 0.721007 0.988233 0.485033 -7.359058 29.485501 -0.672101 -12.933167 18.754719 0.147453 12.469969 27.712844 16.060187 50.358584 2.706053 53.893700 38.807245 -10.129838 -6.480156 -8.577780 5.719244 -14.777861 -37.188936 27.673310 -24.514821 -34.424185 -11.222524 -54.223887 -33.774410 -8.649363 11.790653 5.768841 10.634208 16.019647 -17.281974 -21.733934 9.488787 -1.249403 20.767906 -9.783239 0.135802 -6.506669 -1.678483 0.134560 -0.329133 -0.290396 1.148882 -14.431088 -0.639529 -8.572846 22.067281 -1.782361 -4.757809 -20.397791 -3.427853 0.153951 2.163611 0.951542
-1.843374 89.048308 11.193249 -20.200223 8.051756 4.144792 1.992966 3.007905 1.436781 0.997740 1.346370 0.672501 0.997740 1.346370 0.672501 0.746790 1.010880 0.502156 -7.276846 29.575462 -0.661554 -12.788490 18.917591 0.143456 12.599656 27.752862 16.120887 51.173194 3.183847 53.598115 39.194339 -10.839002 -7.522765 -8.626068 5.794161 -14.975279 -37.501204 27.886001 -24.531373 -34.876775 -11.567274 -53.817511 -34.926754 -8.164826 12.546689 5.630701 10.706839 16.039701 -18.001349 -22.683320 9.805743 -1.489634 21.104921 -10.069241 0.477940 -6.715199 -1.602729 -0.184218 -0.290603 -0.484248 1.513347 -15.305118 -1.128929 -8.289068 24.325586 -2.734812 -6.579648 -21.577123 -2.334661 0.528428 1.181205 1.223590
-2.283056 88.980011 10.953794 -19.892398 8.795479 4.498489 1.944231 3.088163 1.476759 1.024964 1.359666 0.682191 1.024964 1.359666 0.682191 0.767170 1.020898 0.509340 -7.170623 29.700777 -0.683501 -12.595075 19.141571 0.074843 12.565798 27.775789 16.108684 52.303146 3.660772 53.377341 39.309635 -11.566815 -8.513527 -8.707374 5.888286 -15.162280 -37.741962 28.060238 -24.551851 -35.446197 -11.606958 -53.413890 -36.034861 -7.660289 13.238948 5.550327 10.723641 15.970969 -18.432303 -23.578567 10.160065 -2.146214 21.308451 -10.413564 1.093497 -6.908152 -1.605435 -0.454422 -0.222330 -0.638745 1.880574 -16.225742 -1.103459 -6.283379 27.262734 -3.093190 -9.268063 -22.448054 -1.824902 0.814460 -0.275791 1.660376
